<svg xmlns="http://www.w3.org/2000/svg" viewBox="0 0 173.09 96.58"><defs><style>.cls-1{isolation:isolate;}.cls-2{fill:#fff;}</style></defs><g id="Layer_2" data-name="Layer 2"><g id="Layer_1-2" data-name="Layer 1"><g id="Group_41" data-name="Group 41"><g id="Please_turn_device_to_landscape_orientation" data-name="Please turn device to landscape orientation" class="cls-1"><g class="cls-1"><path class="cls-2" d="M10.65,59.05a3.79,3.79,0,0,1,1.19,3,4.75,4.75,0,0,1-.44,2A3.47,3.47,0,0,1,10,65.62a4.75,4.75,0,0,1-2.47.59H5.58V71H3.83V58h3.5A4.83,4.83,0,0,1,10.65,59.05ZM9,64.12a2.17,2.17,0,0,0,.83-1,2.72,2.72,0,0,0,.26-1.11,2.5,2.5,0,0,0-.62-1.66,2.32,2.32,0,0,0-1.9-.73h-2v4.86H7.51A2.62,2.62,0,0,0,9,64.12Z"/><path class="cls-2" d="M15.8,57.05V71H14.13v-14Z"/><path class="cls-2" d="M24,69.09l.77,1.24a4.89,4.89,0,0,1-1.28.62,4.34,4.34,0,0,1-1.34.23A4.41,4.41,0,0,1,20,70.67a3.55,3.55,0,0,1-1.43-1.42,4,4,0,0,1-.51-2,3.8,3.8,0,0,1,.55-2,4.15,4.15,0,0,1,1.5-1.44,4.3,4.3,0,0,1,2.09-.53,3.58,3.58,0,0,1,2.44.86A4.34,4.34,0,0,1,26,66.48l-5.9,2.07a2.34,2.34,0,0,0,.87.87,2.47,2.47,0,0,0,1.25.32A3,3,0,0,0,24,69.09Zm-3.64-3.8a2.63,2.63,0,0,0-.66,1.84,2.25,2.25,0,0,0,0,.41l4.33-1.6a2.44,2.44,0,0,0-.76-1,2,2,0,0,0-1.23-.38A2.22,2.22,0,0,0,20.39,65.29Z"/><path class="cls-2" d="M35.73,63.55V71H34.06V69.78a4,4,0,0,1-1.16,1,3.35,3.35,0,0,1-1.71.44,3.91,3.91,0,0,1-1.91-.46,3.35,3.35,0,0,1-1.35-1.34,4.25,4.25,0,0,1-.5-2.11,4.3,4.3,0,0,1,.51-2.13,3.67,3.67,0,0,1,1.39-1.4,3.87,3.87,0,0,1,1.94-.5,3.16,3.16,0,0,1,1.65.42,3.28,3.28,0,0,1,1.14,1.08l.12-1.19Zm-2.51,5.73a2.28,2.28,0,0,0,.84-1.39V66.41a2.36,2.36,0,0,0-.9-1.29,2.61,2.61,0,0,0-1.57-.49,2.48,2.48,0,0,0-1.23.32,2.38,2.38,0,0,0-.9.91,2.55,2.55,0,0,0-.34,1.32,2.61,2.61,0,0,0,.35,1.32,2.56,2.56,0,0,0,.91.94,2.35,2.35,0,0,0,1.26.35A2.49,2.49,0,0,0,33.22,69.28Z"/><path class="cls-2" d="M39.18,70.87A2.9,2.9,0,0,1,38,70l.72-1a3.62,3.62,0,0,0,1,.66,2.21,2.21,0,0,0,1,.24,1.79,1.79,0,0,0,1-.24A.78.78,0,0,0,42,69a.82.82,0,0,0-.24-.61,1.31,1.31,0,0,0-.53-.34l-1-.33c-1.27-.4-1.9-1.13-1.9-2.17A2.16,2.16,0,0,1,39,63.94a2.69,2.69,0,0,1,1.93-.66,4.37,4.37,0,0,1,1.41.2,3.33,3.33,0,0,1,1.13.63l-.66,1a2.21,2.21,0,0,0-.73-.48,2.55,2.55,0,0,0-.84-.2,1.56,1.56,0,0,0-.87.24.74.74,0,0,0-.35.66.72.72,0,0,0,.23.56,1.46,1.46,0,0,0,.49.33c.16.06.49.18,1,.33a4,4,0,0,1,1.43.79,1.76,1.76,0,0,1,.51,1.32,2.31,2.31,0,0,1-.76,1.78,3,3,0,0,1-2.14.7A4.13,4.13,0,0,1,39.18,70.87Z"/><path class="cls-2" d="M51.3,69.09l.77,1.24a4.89,4.89,0,0,1-1.28.62,4.51,4.51,0,0,1-3.51-.28,3.55,3.55,0,0,1-1.43-1.42,4,4,0,0,1-.51-2,3.8,3.8,0,0,1,.55-2,4.15,4.15,0,0,1,1.5-1.44,4.3,4.3,0,0,1,2.09-.53,3.58,3.58,0,0,1,2.44.86,4.4,4.4,0,0,1,1.34,2.38l-5.9,2.07a2.27,2.27,0,0,0,.87.87,2.47,2.47,0,0,0,1.25.32A3.07,3.07,0,0,0,51.3,69.09Zm-3.64-3.8A2.63,2.63,0,0,0,47,67.13a2.25,2.25,0,0,0,0,.41l4.33-1.6a2.44,2.44,0,0,0-.76-1,2,2,0,0,0-1.24-.38A2.21,2.21,0,0,0,47.66,65.29Z"/><path class="cls-2" d="M63.45,60.27v3.3h2V64.9h-2V71H61.76V64.9H60.39V63.57h1.37v-3.3Z"/><path class="cls-2" d="M74.45,63.55V71H72.94l-.11-1.42a3.06,3.06,0,0,1-1.17,1.23,3.36,3.36,0,0,1-1.77.48,2.37,2.37,0,0,1-1.68-.62,2.22,2.22,0,0,1-.69-1.61V63.55h1.67v4.91a1.58,1.58,0,0,0,.37,1,1.3,1.3,0,0,0,1,.39,1.9,1.9,0,0,0,1.12-.37,2.66,2.66,0,0,0,.8-1A3.53,3.53,0,0,0,72.77,67V63.55Z"/><path class="cls-2" d="M79.8,64.23a4.31,4.31,0,0,1,1.13-.72,2.91,2.91,0,0,1,1-.27l-.07,1.68a2.7,2.7,0,0,0-1.47.32,2.52,2.52,0,0,0-1,1A2.62,2.62,0,0,0,79,67.6V71H77.36V63.55h1.5L79,65.31A3.3,3.3,0,0,1,79.8,64.23Z"/><path class="cls-2" d="M90.48,63.88a2.14,2.14,0,0,1,.71,1.61V71h-1.7V66.07a1.53,1.53,0,0,0-.37-1,1.4,1.4,0,0,0-1-.38,2,2,0,0,0-1.64.79,3.1,3.1,0,0,0-.65,2V71H84.13V63.55h1.51L85.75,65a2.92,2.92,0,0,1,1.19-1.27,3.52,3.52,0,0,1,1.82-.46A2.47,2.47,0,0,1,90.48,63.88Z"/><path class="cls-2" d="M107.55,57.05V71h-1.69V69.83a3.77,3.77,0,0,1-1.33,1,4,4,0,0,1-1.72.36,3.71,3.71,0,0,1-1.89-.5,3.55,3.55,0,0,1-1.32-1.42,4.38,4.38,0,0,1-.48-2.09,4.14,4.14,0,0,1,.51-2.1A3.35,3.35,0,0,1,101,63.71a4.25,4.25,0,0,1,2-.47,4,4,0,0,1,1.63.35,3.08,3.08,0,0,1,1.23,1V57.05ZM105,69.22a2.43,2.43,0,0,0,.88-1.41v-1.4a2.36,2.36,0,0,0-.92-1.32,2.6,2.6,0,0,0-1.6-.52,2.53,2.53,0,0,0-2.18,1.26,2.64,2.64,0,0,0,.92,3.57,2.38,2.38,0,0,0,1.26.34A2.59,2.59,0,0,0,105,69.22Z"/><path class="cls-2" d="M115.76,69.09l.77,1.24a5.12,5.12,0,0,1-1.29.62,4.34,4.34,0,0,1-1.34.23,4.43,4.43,0,0,1-2.17-.51,3.62,3.62,0,0,1-1.43-1.42,4.13,4.13,0,0,1-.5-2,3.8,3.8,0,0,1,.55-2,4,4,0,0,1,1.5-1.44,4.27,4.27,0,0,1,2.09-.53,3.6,3.6,0,0,1,2.44.86,4.4,4.4,0,0,1,1.34,2.38l-5.91,2.07a2.37,2.37,0,0,0,.88.87,2.45,2.45,0,0,0,1.25.32A3.07,3.07,0,0,0,115.76,69.09Zm-3.64-3.8a2.64,2.64,0,0,0-.67,1.84,3.81,3.81,0,0,0,0,.41l4.34-1.6a2.53,2.53,0,0,0-.76-1,2,2,0,0,0-1.24-.38A2.2,2.2,0,0,0,112.12,65.29Z"/><path class="cls-2" d="M126.63,63.55l-4,7.67h-.09l-4.14-7.67h2l2.25,4.75,2.09-4.75Z"/><path class="cls-2" d="M128.61,60.2a1,1,0,0,1,.7-.27,1,1,0,0,1,.69.27.89.89,0,0,1,0,1.33,1,1,0,0,1-.69.27,1,1,0,0,1-.7-.27.87.87,0,0,1,0-1.33Zm1.49,3.35V71h-1.67V63.55Z"/><path class="cls-2" d="M137.87,71a4.53,4.53,0,0,1-1.41.23,4.47,4.47,0,0,1-2.14-.49,3.46,3.46,0,0,1-1.44-1.37,4.09,4.09,0,0,1-.51-2.06,3.9,3.9,0,0,1,.54-2.05,3.71,3.71,0,0,1,1.44-1.37,4,4,0,0,1,1.94-.49,4.22,4.22,0,0,1,2.83.94l-.85,1.09a3.8,3.8,0,0,0-.82-.46,2.83,2.83,0,0,0-1-.18,2.33,2.33,0,0,0-1.22.33,2.36,2.36,0,0,0-.86.91,2.61,2.61,0,0,0-.32,1.28,2.54,2.54,0,0,0,1.25,2.19,2.66,2.66,0,0,0,2.91-.2l.86,1A3.88,3.88,0,0,1,137.87,71Z"/><path class="cls-2" d="M146.54,69.09l.77,1.24A5.12,5.12,0,0,1,146,71a4.34,4.34,0,0,1-1.34.23,4.43,4.43,0,0,1-2.17-.51,3.62,3.62,0,0,1-1.43-1.42,4.13,4.13,0,0,1-.5-2,3.8,3.8,0,0,1,.55-2,4,4,0,0,1,1.5-1.44,4.27,4.27,0,0,1,2.09-.53,3.6,3.6,0,0,1,2.44.86,4.4,4.4,0,0,1,1.34,2.38l-5.91,2.07a2.37,2.37,0,0,0,.88.87,2.45,2.45,0,0,0,1.25.32A3.07,3.07,0,0,0,146.54,69.09Zm-3.64-3.8a2.64,2.64,0,0,0-.67,1.84,3.81,3.81,0,0,0,0,.41l4.34-1.6a2.46,2.46,0,0,0-.77-1,2,2,0,0,0-1.23-.38A2.2,2.2,0,0,0,142.9,65.29Z"/><path class="cls-2" d="M158.69,60.27v3.3h2V64.9h-2V71H157V64.9h-1.37V63.57H157v-3.3Z"/><path class="cls-2" d="M162.64,65.2a3.77,3.77,0,0,1,1.47-1.44,4.42,4.42,0,0,1,2.13-.52,4.32,4.32,0,0,1,2.12.52,3.73,3.73,0,0,1,1.44,1.43,4,4,0,0,1,.51,2,4.08,4.08,0,0,1-.51,2,3.76,3.76,0,0,1-1.45,1.43,4.29,4.29,0,0,1-2.14.52,4.47,4.47,0,0,1-2.11-.5,3.56,3.56,0,0,1-1.46-1.39,4,4,0,0,1-.54-2.09A3.82,3.82,0,0,1,162.64,65.2Zm1.47,3.32a2.43,2.43,0,0,0,.87.93,2.21,2.21,0,0,0,1.21.34,2.26,2.26,0,0,0,1.73-.73,2.84,2.84,0,0,0,0-3.69,2.27,2.27,0,0,0-1.73-.74A2.13,2.13,0,0,0,165,65a2.52,2.52,0,0,0-.86.94,2.88,2.88,0,0,0,0,2.6Z"/></g><g class="cls-1"><path class="cls-2" d="M1.67,79.05V93H0v-14Z"/><path class="cls-2" d="M12.24,85.55V93H10.57V91.78a4,4,0,0,1-1.16,1,3.35,3.35,0,0,1-1.71.44,3.94,3.94,0,0,1-1.91-.46,3.35,3.35,0,0,1-1.35-1.34,4.25,4.25,0,0,1-.5-2.11,4.2,4.2,0,0,1,.52-2.13,3.57,3.57,0,0,1,1.38-1.4,3.87,3.87,0,0,1,1.94-.5,3.16,3.16,0,0,1,1.65.42,3.28,3.28,0,0,1,1.14,1.08l.12-1.19ZM9.73,91.28a2.28,2.28,0,0,0,.84-1.39V88.41a2.36,2.36,0,0,0-.9-1.29,2.61,2.61,0,0,0-1.57-.49A2.48,2.48,0,0,0,6.87,87a2.38,2.38,0,0,0-.9.91,2.55,2.55,0,0,0-.34,1.32A2.61,2.61,0,0,0,6,90.5a2.56,2.56,0,0,0,.91.94,2.35,2.35,0,0,0,1.26.35A2.49,2.49,0,0,0,9.73,91.28Z"/><path class="cls-2" d="M21.51,85.88a2.1,2.1,0,0,1,.7,1.61V93H20.52V88.07a1.48,1.48,0,0,0-.38-1,1.4,1.4,0,0,0-1-.38,2,2,0,0,0-1.64.79,3.1,3.1,0,0,0-.65,2V93H15.16V85.55h1.51L16.78,87A3,3,0,0,1,18,85.72a3.54,3.54,0,0,1,1.82-.46A2.5,2.5,0,0,1,21.51,85.88Z"/><path class="cls-2" d="M32.89,79.05V93h-1.7V91.83a3.83,3.83,0,0,1-1.32,1,4,4,0,0,1-1.72.36,3.71,3.71,0,0,1-1.89-.5,3.55,3.55,0,0,1-1.32-1.42,4.38,4.38,0,0,1-.48-2.09,4.14,4.14,0,0,1,.51-2.1,3.29,3.29,0,0,1,1.38-1.36,4.22,4.22,0,0,1,2-.47,4,4,0,0,1,1.63.35,3.08,3.08,0,0,1,1.23,1V79.05ZM30.32,91.22a2.37,2.37,0,0,0,.87-1.41v-1.4a2.34,2.34,0,0,0-.91-1.32,2.63,2.63,0,0,0-1.61-.52,2.53,2.53,0,0,0-1.26.34,2.44,2.44,0,0,0-.91.92,2.65,2.65,0,0,0,0,2.63,2.49,2.49,0,0,0,.91.94,2.43,2.43,0,0,0,1.26.34A2.6,2.6,0,0,0,30.32,91.22Z"/><path class="cls-2" d="M36.31,92.87A2.93,2.93,0,0,1,35.1,92l.72-1a3.58,3.58,0,0,0,.94.66,2.25,2.25,0,0,0,1,.24,1.79,1.79,0,0,0,1-.24A.78.78,0,0,0,39.1,91a.82.82,0,0,0-.24-.61,1.31,1.31,0,0,0-.53-.34l-1-.33c-1.27-.4-1.91-1.13-1.91-2.17a2.14,2.14,0,0,1,.7-1.61,2.67,2.67,0,0,1,1.93-.66,4.37,4.37,0,0,1,1.41.2,3.43,3.43,0,0,1,1.13.63l-.67,1a2,2,0,0,0-.73-.48,2.44,2.44,0,0,0-.83-.2,1.53,1.53,0,0,0-.87.24.75.75,0,0,0-.36.66.73.73,0,0,0,.24.56,1.43,1.43,0,0,0,.48.33c.17.06.5.18,1,.33a3.85,3.85,0,0,1,1.43.79,1.73,1.73,0,0,1,.52,1.32A2.31,2.31,0,0,1,40,92.46a3,3,0,0,1-2.14.7A4.22,4.22,0,0,1,36.31,92.87Z"/><path class="cls-2" d="M48,93a4.59,4.59,0,0,1-1.42.23,4.46,4.46,0,0,1-2.13-.49A3.46,3.46,0,0,1,43,91.32a4.09,4.09,0,0,1-.51-2.06A3.9,3.9,0,0,1,43,87.21a3.71,3.71,0,0,1,1.44-1.37,4,4,0,0,1,1.94-.49,4.24,4.24,0,0,1,2.83.94l-.85,1.09a3.8,3.8,0,0,0-.82-.46,2.83,2.83,0,0,0-1-.18,2.33,2.33,0,0,0-1.22.33,2.36,2.36,0,0,0-.86.91,2.61,2.61,0,0,0-.32,1.28,2.54,2.54,0,0,0,1.25,2.19,2.48,2.48,0,0,0,1.31.34,2.52,2.52,0,0,0,1.6-.54l.86,1A3.88,3.88,0,0,1,48,93Z"/><path class="cls-2" d="M59,85.55V93H57.31V91.78a3.91,3.91,0,0,1-1.15,1,3.4,3.4,0,0,1-1.71.44,4,4,0,0,1-1.92-.46,3.35,3.35,0,0,1-1.35-1.34,4.25,4.25,0,0,1-.49-2.11,4.3,4.3,0,0,1,.51-2.13,3.53,3.53,0,0,1,1.39-1.4,3.83,3.83,0,0,1,1.93-.5,3.17,3.17,0,0,1,1.66.42,3.25,3.25,0,0,1,1.13,1.08l.13-1.19Zm-2.51,5.73a2.28,2.28,0,0,0,.84-1.39V88.41a2.26,2.26,0,0,0-.9-1.29,2.61,2.61,0,0,0-1.57-.49,2.51,2.51,0,0,0-1.23.32,2.38,2.38,0,0,0-.9.91,2.64,2.64,0,0,0-.33,1.32,2.59,2.59,0,0,0,1.26,2.26,2.3,2.3,0,0,0,1.26.35A2.47,2.47,0,0,0,56.47,91.28Z"/><path class="cls-2" d="M68.51,85.75a3.55,3.55,0,0,1,1.33,1.41,4.4,4.4,0,0,1,.48,2.1,4,4,0,0,1-.52,2.06,3.52,3.52,0,0,1-1.44,1.37,4.23,4.23,0,0,1-2,.49,3.62,3.62,0,0,1-1.55-.35,3.22,3.22,0,0,1-1.19-1v4.7H61.9V85.42h1.46l.14,1.26a4.56,4.56,0,0,1,1.38-1,3.77,3.77,0,0,1,1.74-.4A3.62,3.62,0,0,1,68.51,85.75ZM67.29,91.5a2.57,2.57,0,0,0,1-.92,2.46,2.46,0,0,0,.36-1.31,2.7,2.7,0,0,0-.33-1.33,2.39,2.39,0,0,0-.91-.93,2.44,2.44,0,0,0-1.28-.35,2.52,2.52,0,0,0-2.52,2v1.24a2.28,2.28,0,0,0,.82,1.41,2.45,2.45,0,0,0,1.6.55A2.64,2.64,0,0,0,67.29,91.5Z"/><path class="cls-2" d="M77.88,91.09l.78,1.24a5.12,5.12,0,0,1-1.29.62,4.34,4.34,0,0,1-1.34.23,4.43,4.43,0,0,1-2.17-.51,3.62,3.62,0,0,1-1.43-1.42,4,4,0,0,1-.5-2,3.8,3.8,0,0,1,.55-2A4,4,0,0,1,74,85.77a4.24,4.24,0,0,1,2.09-.53,3.6,3.6,0,0,1,2.44.86,4.4,4.4,0,0,1,1.34,2.38l-5.91,2.07a2.37,2.37,0,0,0,.88.87,2.45,2.45,0,0,0,1.25.32A3,3,0,0,0,77.88,91.09Zm-3.63-3.8a2.59,2.59,0,0,0-.67,1.84,3.81,3.81,0,0,0,0,.41l4.34-1.6a2.46,2.46,0,0,0-.77-1,2,2,0,0,0-1.23-.38A2.2,2.2,0,0,0,74.25,87.29Z"/><path class="cls-2" d="M87.5,87.2A3.86,3.86,0,0,1,89,85.76a4.42,4.42,0,0,1,2.13-.52,4.32,4.32,0,0,1,2.12.52,3.73,3.73,0,0,1,1.44,1.43,4,4,0,0,1,.51,2,4.08,4.08,0,0,1-.51,2,3.76,3.76,0,0,1-1.45,1.43,4.29,4.29,0,0,1-2.14.52,4.47,4.47,0,0,1-2.11-.5,3.64,3.64,0,0,1-1.47-1.39A4.08,4.08,0,0,1,87,89.2,3.91,3.91,0,0,1,87.5,87.2ZM89,90.52a2.43,2.43,0,0,0,.87.93,2.21,2.21,0,0,0,1.21.34,2.26,2.26,0,0,0,1.73-.73,2.84,2.84,0,0,0,0-3.69,2.27,2.27,0,0,0-1.73-.74,2.13,2.13,0,0,0-1.22.35,2.52,2.52,0,0,0-.86.94,2.88,2.88,0,0,0,0,2.6Z"/><path class="cls-2" d="M99.87,86.23a4.31,4.31,0,0,1,1.13-.72,2.91,2.91,0,0,1,1-.27L102,86.92a2.7,2.7,0,0,0-1.47.32,2.52,2.52,0,0,0-1,1,2.62,2.62,0,0,0-.37,1.36V93H97.43V85.55h1.5l.12,1.76A3.3,3.3,0,0,1,99.87,86.23Z"/><path class="cls-2" d="M104.38,82.2a1,1,0,0,1,.7-.27,1,1,0,0,1,.7.27.91.91,0,0,1,0,1.33,1,1,0,0,1-.7.27,1,1,0,0,1-.7-.27.87.87,0,0,1,0-1.33Zm1.49,3.35V93H104.2V85.55Z"/><path class="cls-2" d="M114.1,91.09l.77,1.24a4.89,4.89,0,0,1-1.28.62,4.34,4.34,0,0,1-1.34.23,4.41,4.41,0,0,1-2.17-.51,3.55,3.55,0,0,1-1.43-1.42,4,4,0,0,1-.51-2,3.8,3.8,0,0,1,.55-2,4.15,4.15,0,0,1,1.5-1.44,4.3,4.3,0,0,1,2.09-.53,3.58,3.58,0,0,1,2.44.86,4.34,4.34,0,0,1,1.34,2.38l-5.9,2.07a2.34,2.34,0,0,0,.87.87,2.47,2.47,0,0,0,1.25.32A3,3,0,0,0,114.1,91.09Zm-3.64-3.8a2.63,2.63,0,0,0-.66,1.84,2.25,2.25,0,0,0,0,.41l4.33-1.6a2.44,2.44,0,0,0-.76-1,2,2,0,0,0-1.23-.38A2.22,2.22,0,0,0,110.46,87.29Z"/><path class="cls-2" d="M124.5,85.88a2.14,2.14,0,0,1,.71,1.61V93h-1.7V88.07a1.53,1.53,0,0,0-.37-1,1.4,1.4,0,0,0-1-.38,2,2,0,0,0-1.64.79,3.1,3.1,0,0,0-.65,2V93h-1.67V85.55h1.51l.11,1.44A2.92,2.92,0,0,1,121,85.72a3.52,3.52,0,0,1,1.82-.46A2.47,2.47,0,0,1,124.5,85.88Z"/><path class="cls-2" d="M130.52,82.27v3.3h2V86.9h-2V93h-1.7V86.9h-1.36V85.57h1.36v-3.3Z"/><path class="cls-2" d="M142.23,85.55V93h-1.67V91.78a3.91,3.91,0,0,1-1.15,1,3.4,3.4,0,0,1-1.71.44,4,4,0,0,1-1.92-.46,3.35,3.35,0,0,1-1.35-1.34,4.25,4.25,0,0,1-.49-2.11,4.3,4.3,0,0,1,.51-2.13,3.57,3.57,0,0,1,1.38-1.4,3.89,3.89,0,0,1,1.94-.5,3.17,3.17,0,0,1,1.66.42,3.34,3.34,0,0,1,1.13,1.08l.13-1.19Zm-2.51,5.73a2.28,2.28,0,0,0,.84-1.39V88.41a2.26,2.26,0,0,0-.9-1.29,2.61,2.61,0,0,0-1.57-.49,2.51,2.51,0,0,0-1.23.32,2.38,2.38,0,0,0-.9.91,2.64,2.64,0,0,0-.33,1.32,2.59,2.59,0,0,0,1.26,2.26,2.3,2.3,0,0,0,1.26.35A2.49,2.49,0,0,0,139.72,91.28Z"/><path class="cls-2" d="M147.56,82.27v3.3h2V86.9h-2V93h-1.69V86.9H144.5V85.57h1.37v-3.3Z"/><path class="cls-2" d="M151.81,82.2a1,1,0,0,1,.7-.27,1,1,0,0,1,.69.27.89.89,0,0,1,0,1.33,1,1,0,0,1-.69.27,1,1,0,0,1-.7-.27.87.87,0,0,1,0-1.33Zm1.49,3.35V93h-1.67V85.55Z"/><path class="cls-2" d="M156.1,87.2a3.86,3.86,0,0,1,1.48-1.44,4.42,4.42,0,0,1,2.13-.52,4.35,4.35,0,0,1,2.12.52,3.87,3.87,0,0,1,1.44,1.43,4,4,0,0,1,.51,2,4.08,4.08,0,0,1-.51,2,3.83,3.83,0,0,1-1.45,1.43,4.32,4.32,0,0,1-2.14.52,4.44,4.44,0,0,1-2.11-.5,3.58,3.58,0,0,1-1.47-1.39,4.08,4.08,0,0,1-.53-2.09A3.91,3.91,0,0,1,156.1,87.2Zm1.48,3.32a2.49,2.49,0,0,0,.86.93,2.25,2.25,0,0,0,1.22.34,2.27,2.27,0,0,0,1.73-.73,2.84,2.84,0,0,0,0-3.69,2.28,2.28,0,0,0-1.73-.74,2.16,2.16,0,0,0-1.23.35,2.49,2.49,0,0,0-.85.94,2.8,2.8,0,0,0,0,2.6Z"/><path class="cls-2" d="M172.38,85.88a2.14,2.14,0,0,1,.71,1.61V93h-1.7V88.07a1.53,1.53,0,0,0-.37-1,1.42,1.42,0,0,0-1-.38,2,2,0,0,0-1.64.79,3.1,3.1,0,0,0-.65,2V93H166V85.55h1.51l.11,1.44a2.92,2.92,0,0,1,1.19-1.27,3.48,3.48,0,0,1,1.81-.46A2.48,2.48,0,0,1,172.38,85.88Z"/></g></g><g id="Group_40" data-name="Group 40"><g id="Group_34" data-name="Group 34"><path id="Path_22" data-name="Path 22" class="cls-2" d="M79.8,41H71.27a5.73,5.73,0,0,1-5.73-5.73V5.73A5.73,5.73,0,0,1,71.27,0H79.8a5.74,5.74,0,0,1,5.74,5.73V35.27A5.74,5.74,0,0,1,79.8,41ZM71.27,2a3.73,3.73,0,0,0-3.73,3.73V35.27A3.73,3.73,0,0,0,71.27,39H79.8a3.75,3.75,0,0,0,3.74-3.73V5.73A3.75,3.75,0,0,0,79.8,2Z"/></g><g id="Group_35" data-name="Group 35"><path id="Path_23" data-name="Path 23" class="cls-2" d="M100.8,21H85.54v2H100.8a3.75,3.75,0,0,1,3.74,3.73v8.54A3.75,3.75,0,0,1,100.8,39H84.14a5.7,5.7,0,0,1-4.34,2h21a5.74,5.74,0,0,0,5.74-5.73V26.73A5.74,5.74,0,0,0,100.8,21Z"/></g><g id="Group_39" data-name="Group 39"><g id="Group_36" data-name="Group 36"><path id="Path_24" data-name="Path 24" class="cls-2" d="M103.41,12.68a15.75,15.75,0,0,0-14.8-10.4v-2A17.76,17.76,0,0,1,105.29,12Z"/></g><g id="Group_38" data-name="Group 38"><g id="Group_37" data-name="Group 37"><path id="Path_25" data-name="Path 25" class="cls-2" d="M100.06,12l5.28,6,2.54-7.56Z"/></g></g></g></g></g></g></g></svg>