<svg xmlns="http://www.w3.org/2000/svg" viewBox="0 0 207.46 25.14"><defs><style>.cls-1{isolation:isolate;}.cls-2{fill:#c09836;}.cls-3{fill:#fff;}</style></defs><g id="Layer_2" data-name="Layer 2"><g id="Layer_1-2" data-name="Layer 1"><g class="cls-1"><g class="cls-1"><path class="cls-2" d="M42.51,0V7.66H41.06V4.15l-2.4,3.41h0L36.33,4.37V7.66h-1.4V0h0l3.73,5.29L42.49,0Z"/><path class="cls-2" d="M49.05,6.22H46.61L46,7.66H44.58L47.9,0H48L51.3,7.66H49.62ZM48.57,5l-.71-1.79L47.12,5Z"/><path class="cls-2" d="M60,.3V8h0L54.81,3.31l0,4.35H53.37V0h.06l5.14,4.72,0-4.43Z"/><path class="cls-2" d="M69.09,7.66H67.64v-3H64.35v3H62.9V.3h1.45v3h3.29V.3h1.45Z"/><path class="cls-2" d="M75.63,6.22H73.19l-.6,1.44H71.16L74.48,0h.08l3.32,7.65H76.2ZM75.15,5l-.71-1.79L73.7,5Z"/><path class="cls-2" d="M83.81.3V1.7H82v6H80.57v-6H78.85V.3Z"/><path class="cls-2" d="M90.67.3V1.7H88.88v6H87.43v-6H85.71V.3Z"/><path class="cls-2" d="M96.11,6.22H93.67l-.6,1.44H91.64L95,0H95l3.32,7.65H96.68ZM95.63,5l-.71-1.79L94.18,5Z"/><path class="cls-2" d="M107.06.3V8h0l-5.15-4.65,0,4.35h-1.47V0h.06l5.14,4.72,0-4.43Z"/><path class="cls-2" d="M118.53,1a2.31,2.31,0,0,1,.74,1.82A3.05,3.05,0,0,1,119,4a2.2,2.2,0,0,1-.83.94,2.7,2.7,0,0,1-1.49.37h-1V7.66h-1.45V.3h2.23A3,3,0,0,1,118.53,1Zm-1.18,2.78a1.07,1.07,0,0,0,.36-.44,1.11,1.11,0,0,0,.11-.48,1.32,1.32,0,0,0-.23-.75,1,1,0,0,0-.89-.37h-1V3.92h1A1.08,1.08,0,0,0,117.35,3.74Z"/><path class="cls-2" d="M125.54,7.66,124,5.32h-1V7.66h-1.45V.3h2.23a3.14,3.14,0,0,1,2.13.66,2.32,2.32,0,0,1,.75,1.82,2.88,2.88,0,0,1-.28,1.27,2.1,2.1,0,0,1-.88.94l1.71,2.67ZM123,3.92h1a1,1,0,0,0,.86-.34,1.21,1.21,0,0,0,.27-.75,1.33,1.33,0,0,0-.23-.76,1,1,0,0,0-.89-.37h-1Z"/><path class="cls-2" d="M134.45.3V1.7h-3.57V3.27H134v1.4h-3.16V6.26h3.71v1.4h-5.16V.3Z"/><path class="cls-2" d="M139.35,1.55a1.21,1.21,0,0,0-.74.19.66.66,0,0,0-.27.57.74.74,0,0,0,.39.61,4.59,4.59,0,0,0,1,.51,3.88,3.88,0,0,1,.89.44,1.91,1.91,0,0,1,.62.67,2.23,2.23,0,0,1,.24,1.09,2.09,2.09,0,0,1-.29,1.06,2.12,2.12,0,0,1-.87.77,3,3,0,0,1-1.36.28,4.58,4.58,0,0,1-1.31-.2A3.88,3.88,0,0,1,136.46,7l.64-1.13a3.61,3.61,0,0,0,.87.46,2.6,2.6,0,0,0,.88.18,1.55,1.55,0,0,0,.8-.19.69.69,0,0,0,.34-.64c0-.38-.35-.71-1.07-1a11,11,0,0,1-1-.48,2.05,2.05,0,0,1-.72-.66,1.79,1.79,0,0,1-.31-1.08,2,2,0,0,1,.63-1.53,2.49,2.49,0,0,1,1.66-.63,4.11,4.11,0,0,1,1.37.19,4.23,4.23,0,0,1,1.07.52L141,2.08A3.6,3.6,0,0,0,139.35,1.55Z"/><path class="cls-2" d="M148.94.3V1.7h-3.57V3.27h3.16v1.4h-3.16V6.26h3.71v1.4h-5.16V.3Z"/><path class="cls-2" d="M158.21.3V8h0L153,3.31l0,4.35h-1.47V0h.06l5.14,4.72,0-4.43Z"/><path class="cls-2" d="M165.57.3V1.7h-1.79v6h-1.45v-6h-1.72V.3Z"/><path class="cls-2" d="M170.23,1.55a1.21,1.21,0,0,0-.74.19.66.66,0,0,0-.27.57.74.74,0,0,0,.39.61,4.59,4.59,0,0,0,1,.51,3.88,3.88,0,0,1,.89.44,1.91,1.91,0,0,1,.62.67,2.23,2.23,0,0,1,.24,1.09,2.09,2.09,0,0,1-.29,1.06,2.12,2.12,0,0,1-.87.77,3,3,0,0,1-1.36.28,4.58,4.58,0,0,1-1.31-.2A3.88,3.88,0,0,1,167.34,7L168,5.82a3.61,3.61,0,0,0,.87.46,2.6,2.6,0,0,0,.88.18,1.55,1.55,0,0,0,.8-.19.69.69,0,0,0,.34-.64c0-.38-.35-.71-1.07-1a11,11,0,0,1-1.05-.48A2.05,2.05,0,0,1,168,3.5a1.79,1.79,0,0,1-.31-1.08,2,2,0,0,1,.63-1.53A2.49,2.49,0,0,1,170,.26a4.11,4.11,0,0,1,1.37.19,4.23,4.23,0,0,1,1.07.52l-.55,1.11A3.6,3.6,0,0,0,170.23,1.55Z"/></g></g><g class="cls-1"><g class="cls-1"><path class="cls-3" d="M9.28,14.36V25.08h0L2,18.57l0,6.09H0V14H.08l7.2,6.61,0-6.2Z"/><path class="cls-3" d="M20.37,14.36v2h-5v2.19H19.8v2H15.37V22.7h5.2v2H13.34V14.36Z"/><path class="cls-3" d="M32.63,25.11,30.18,19l-2.85,6.14L23.18,14.43h2.38l2,6,1.57-3.93-.81-2h2l2.31,5.72,1.75-5.72h2.18Z"/><path class="cls-3" d="M54.31,14.36l-3.87,7.09v3.21h-2V21.45l-3.79-7.09h2.5l2.37,4.76,2.31-4.76Z"/><path class="cls-3" d="M56.27,16.9A5.41,5.41,0,0,1,58.19,15a5.15,5.15,0,0,1,5.25,0,5.52,5.52,0,0,1,1.93,1.94,5.09,5.09,0,0,1,.72,2.62,5,5,0,0,1-.72,2.63,5.38,5.38,0,0,1-1.93,1.92,5.29,5.29,0,0,1-5.26,0,5.33,5.33,0,0,1-1.91-1.92,5.1,5.1,0,0,1-.7-2.63A5.17,5.17,0,0,1,56.27,16.9Zm1.82,4.27a3.18,3.18,0,0,0,1.16,1.2,3.07,3.07,0,0,0,1.63.44,2.93,2.93,0,0,0,1.59-.44,3.13,3.13,0,0,0,1.12-1.19,3.61,3.61,0,0,0,0-3.34,3.18,3.18,0,0,0-1.14-1.19,3.07,3.07,0,0,0-3.2,0,3.18,3.18,0,0,0-1.14,1.19,3.51,3.51,0,0,0,0,3.33Z"/><path class="cls-3" d="M75.08,24.66l-2.17-3.28H71.55v3.28h-2V14.36h3.13a4.35,4.35,0,0,1,3,.93,3.18,3.18,0,0,1,1.06,2.54,4.14,4.14,0,0,1-.4,1.78,3,3,0,0,1-1.23,1.31l2.4,3.74Zm-3.53-5.24H73a1.43,1.43,0,0,0,1.2-.48,1.67,1.67,0,0,0,.38-1,2,2,0,0,0-.32-1.07A1.38,1.38,0,0,0,73,16.32H71.55Z"/><path class="cls-3" d="M82.53,18.54l.31-.39,3.36-3.79h2.63L84.57,19l4.27,5.68H86.27l-3.18-4.4-.5.51v3.89H80.53V14.36h2.06V18Z"/><path class="cls-3" d="M103.78,15.29a3.24,3.24,0,0,1,1,2.54,4.22,4.22,0,0,1-.36,1.73,3.06,3.06,0,0,1-1.16,1.32,3.75,3.75,0,0,1-2.08.52H99.76v3.26h-2V14.36h3.13A4.21,4.21,0,0,1,103.78,15.29Zm-1.65,3.88a1.65,1.65,0,0,0,.66-1.29,1.91,1.91,0,0,0-.33-1.05,1.35,1.35,0,0,0-1.24-.51H99.76v3.1h1.45A1.52,1.52,0,0,0,102.13,19.17Z"/><path class="cls-3" d="M115.06,14.36v2h-5v2.19h4.42v2h-4.42V22.7h5.19v2H108V14.36Z"/><path class="cls-3" d="M124.32,24.66l-2.17-3.28h-1.36v3.28h-2V14.36h3.12a4.38,4.38,0,0,1,3,.93,3.21,3.21,0,0,1,1,2.54,4.13,4.13,0,0,1-.39,1.78,3,3,0,0,1-1.23,1.31l2.39,3.74Zm-3.53-5.24h1.44a1.46,1.46,0,0,0,1.21-.48,1.66,1.66,0,0,0,.37-1,1.94,1.94,0,0,0-.32-1.07,1.35,1.35,0,0,0-1.24-.51h-1.46Z"/><path class="cls-3" d="M132.93,16.11a1.79,1.79,0,0,0-1,.26.93.93,0,0,0-.38.8,1,1,0,0,0,.54.86,6.88,6.88,0,0,0,1.44.71,6,6,0,0,1,1.24.61,2.72,2.72,0,0,1,.87.94,3.15,3.15,0,0,1,.34,1.53,2.79,2.79,0,0,1-1.63,2.55,4.13,4.13,0,0,1-1.9.4,6.34,6.34,0,0,1-1.83-.27,5.83,5.83,0,0,1-1.7-.83l.9-1.59a4.57,4.57,0,0,0,1.22.65,3.5,3.5,0,0,0,1.23.25,2.24,2.24,0,0,0,1.12-.27.94.94,0,0,0,.47-.89c0-.53-.49-1-1.49-1.39a13.34,13.34,0,0,1-1.47-.67,3,3,0,0,1-1-.92,2.62,2.62,0,0,1-.43-1.52,2.8,2.8,0,0,1,.88-2.14,3.57,3.57,0,0,1,2.33-.88,6.14,6.14,0,0,1,1.92.26,6.91,6.91,0,0,1,1.5.73l-.77,1.56A5,5,0,0,0,132.93,16.11Z"/><path class="cls-3" d="M139.4,16.9A5.41,5.41,0,0,1,141.32,15a5.15,5.15,0,0,1,5.25,0,5.52,5.52,0,0,1,1.93,1.94,5.09,5.09,0,0,1,.72,2.62,5,5,0,0,1-.72,2.63,5.38,5.38,0,0,1-1.93,1.92,5.29,5.29,0,0,1-5.26,0,5.33,5.33,0,0,1-1.91-1.92,5.1,5.1,0,0,1-.7-2.63A5.17,5.17,0,0,1,139.4,16.9Zm1.82,4.27a3.21,3.21,0,0,0,1.17,1.2,3,3,0,0,0,1.63.44,2.92,2.92,0,0,0,1.58-.44,3.13,3.13,0,0,0,1.12-1.19,3.61,3.61,0,0,0,0-3.34,3.18,3.18,0,0,0-1.14-1.19,3.07,3.07,0,0,0-3.2,0,3.18,3.18,0,0,0-1.14,1.19,3.43,3.43,0,0,0-.42,1.68A3.32,3.32,0,0,0,141.22,21.17Z"/><path class="cls-3" d="M161.94,14.36V25.08h-.06l-7.21-6.51,0,6.09h-2.06V14h.09l7.19,6.61,0-6.2Z"/><path class="cls-3" d="M168,14.36v10.3h-2V14.36Z"/><path class="cls-3" d="M178.53,14.36v2h-4.41v2.33h3.82v2h-3.82v4.05h-2V14.36Z"/><path class="cls-3" d="M183.92,14.36v10.3h-2V14.36Z"/><path class="cls-3" d="M195,14.36v2h-5v2.19h4.42v2H190V22.7h5.19v2H188V14.36Z"/><path class="cls-3" d="M198.7,14.36h3.08a6.23,6.23,0,0,1,3.25.76,4.6,4.6,0,0,1,1.85,2,5.92,5.92,0,0,1,.58,2.6,4.87,4.87,0,0,1-.7,2.62,4.64,4.64,0,0,1-1.88,1.74,5.54,5.54,0,0,1-2.6.61H198.7Zm3.23,8.34a3.68,3.68,0,0,0,2.51-.81,2.93,2.93,0,0,0,.92-2.34,3.37,3.37,0,0,0-.51-2,2.7,2.7,0,0,0-1.19-1,3.49,3.49,0,0,0-1.28-.28h-1.65v6.4Z"/></g></g></g></g></svg>