<svg width="347" height="42" viewBox="0 0 347 42" fill="none" xmlns="http://www.w3.org/2000/svg">
<g clip-path="url(#clip0_709_195)">
<path d="M56.5628 12.9525C56.3791 13.0873 56.0912 13.2527 55.6991 13.4487C55.3071 13.6447 54.8415 13.8162 54.3025 13.9632C53.7756 14.098 53.1876 14.1593 52.5383 14.147C51.4969 14.1348 50.5597 13.951 49.7266 13.5957C48.8935 13.2282 48.189 12.7381 47.6132 12.1255C47.0374 11.5007 46.5902 10.7901 46.2717 9.99379C45.9654 9.1852 45.8122 8.32761 45.8122 7.421C45.8122 6.40414 45.9715 5.47303 46.29 4.62768C46.6086 3.78234 47.0619 3.05338 47.6499 2.44081C48.238 1.81599 48.9363 1.33206 49.7449 0.989021C50.5535 0.645982 51.4356 0.474462 52.3912 0.474462C53.2366 0.474462 53.99 0.59085 54.6516 0.823627C55.3254 1.04415 55.889 1.29531 56.3423 1.57709L55.497 3.59857C55.1539 3.35354 54.7251 3.11464 54.2106 2.88186C53.696 2.64908 53.1141 2.5327 52.4647 2.5327C51.8767 2.5327 51.3131 2.65521 50.7741 2.90024C50.235 3.13301 49.7633 3.46993 49.359 3.91098C48.9547 4.33978 48.6301 4.84208 48.385 5.4179C48.1523 5.99371 48.0359 6.61854 48.0359 7.29236C48.0359 7.99069 48.14 8.63389 48.3483 9.22196C48.5688 9.79777 48.8751 10.3001 49.2671 10.7289C49.6714 11.1577 50.1492 11.4946 50.7005 11.7396C51.2641 11.9724 51.8889 12.0888 52.575 12.0888C53.2733 12.0888 53.8798 11.9846 54.3943 11.7764C54.9211 11.5558 55.3438 11.3108 55.6624 11.0413L56.5628 12.9525ZM58.0204 14L63.9378 0.0701666H64.0664L69.9839 14H67.5213L63.3497 3.43317L64.8934 2.38568L60.1337 14H58.0204ZM61.7325 9.03819H66.3084L67.0435 10.8575H61.0893L61.7325 9.03819ZM76.0523 0.621479C77.0692 0.621479 77.939 0.792998 78.6619 1.13604C79.3847 1.47908 79.936 1.96913 80.3158 2.60621C80.7078 3.24328 80.9039 4.01511 80.9039 4.92172C80.9039 5.44853 80.8181 5.97534 80.6466 6.50215C80.4873 7.02896 80.23 7.50676 79.8747 7.93556C79.5317 8.36436 79.0662 8.71352 78.4781 8.98305C77.9023 9.24033 77.1917 9.36897 76.3463 9.36897H74.4168V14H72.2666V0.621479H76.0523ZM76.3463 7.29236C76.8119 7.29236 77.2039 7.21273 77.5225 7.05346C77.841 6.89419 78.086 6.69204 78.2576 6.44702C78.4413 6.20199 78.57 5.95083 78.6435 5.69356C78.7292 5.42402 78.7721 5.18512 78.7721 4.97685C78.7721 4.75632 78.7354 4.51742 78.6619 4.26014C78.5884 3.99061 78.4658 3.73946 78.2943 3.50668C78.1228 3.26165 77.8839 3.06563 77.5776 2.91861C77.2713 2.75935 76.8793 2.67971 76.4015 2.67971H74.4168V7.29236H76.3463ZM83.5011 0.621479H92.3772V2.67971H85.6512V6.24487H91.6421V8.32148H85.6512V11.9418H92.6345V14H83.5011V0.621479ZM95.5969 0.621479H97.747V11.9418H104.344V14H95.5969V0.621479ZM107.172 0.621479H109.322V11.9418H115.92V14H107.172V0.621479ZM117.351 14L123.269 0.0701666H123.397L129.315 14H126.852L122.68 3.43317L124.224 2.38568L119.464 14H117.351ZM121.063 9.03819H125.639L126.374 10.8575H120.42L121.063 9.03819ZM148.363 0.621479V14H146.213V8.32148H139.634V14H137.484V0.621479H139.634V6.26325H146.213V0.621479H148.363ZM151.211 7.32912C151.211 6.39801 151.389 5.52204 151.744 4.70119C152.1 3.88035 152.59 3.15139 153.214 2.51432C153.839 1.87725 154.562 1.38107 155.383 1.02577C156.216 0.658233 157.104 0.474462 158.048 0.474462C158.979 0.474462 159.855 0.658233 160.676 1.02577C161.509 1.38107 162.238 1.87725 162.862 2.51432C163.499 3.15139 163.996 3.88035 164.351 4.70119C164.718 5.52204 164.902 6.39801 164.902 7.32912C164.902 8.27247 164.718 9.15457 164.351 9.97542C163.996 10.7963 163.499 11.5252 162.862 12.1623C162.238 12.7871 161.509 13.2772 160.676 13.6325C159.855 13.9755 158.979 14.147 158.048 14.147C157.092 14.147 156.204 13.9755 155.383 13.6325C154.562 13.2772 153.839 12.7932 153.214 12.1807C152.59 11.5558 152.1 10.833 151.744 10.0122C151.389 9.17908 151.211 8.28473 151.211 7.32912ZM153.417 7.32912C153.417 7.99069 153.533 8.60939 153.766 9.1852C154.011 9.76102 154.348 10.2695 154.776 10.7105C155.205 11.1393 155.701 11.4762 156.265 11.7212C156.829 11.9663 157.441 12.0888 158.103 12.0888C158.74 12.0888 159.334 11.9663 159.885 11.7212C160.449 11.4762 160.939 11.1393 161.355 10.7105C161.772 10.2695 162.097 9.76102 162.329 9.1852C162.574 8.60939 162.697 7.99069 162.697 7.32912C162.697 6.65529 162.574 6.03047 162.329 5.45465C162.084 4.87884 161.754 4.37041 161.337 3.92935C160.921 3.4883 160.43 3.14527 159.867 2.90024C159.303 2.65521 158.697 2.5327 158.048 2.5327C157.398 2.5327 156.792 2.65521 156.228 2.90024C155.665 3.14527 155.169 3.4883 154.74 3.92935C154.323 4.37041 153.998 4.88496 153.766 5.47303C153.533 6.04885 153.417 6.66754 153.417 7.32912ZM166.283 0.621479H175.233V2.67971H171.778V14H169.646V2.67971H166.283V0.621479ZM177.953 0.621479H186.829V2.67971H180.103V6.24487H186.094V8.32148H180.103V11.9418H187.086V14H177.953V0.621479ZM190.049 0.621479H192.199V11.9418H198.796V14H190.049V0.621479ZM211.296 0.621479C212.313 0.621479 213.183 0.792998 213.906 1.13604C214.629 1.47908 215.18 1.96913 215.56 2.60621C215.952 3.24328 216.148 4.01511 216.148 4.92172C216.148 5.44853 216.062 5.97534 215.89 6.50215C215.731 7.02896 215.474 7.50676 215.119 7.93556C214.776 8.36436 214.31 8.71352 213.722 8.98305C213.146 9.24033 212.436 9.36897 211.59 9.36897H209.661V14H207.511V0.621479H211.296ZM211.59 7.29236C212.056 7.29236 212.448 7.21273 212.766 7.05346C213.085 6.89419 213.33 6.69204 213.501 6.44702C213.685 6.20199 213.814 5.95083 213.887 5.69356C213.973 5.42402 214.016 5.18512 214.016 4.97685C214.016 4.75632 213.979 4.51742 213.906 4.26014C213.832 3.99061 213.71 3.73946 213.538 3.50668C213.367 3.26165 213.128 3.06563 212.821 2.91861C212.515 2.75935 212.123 2.67971 211.645 2.67971H209.661V7.29236H211.59ZM222.512 0.621479C223.247 0.621479 223.921 0.71949 224.534 0.915513C225.146 1.09928 225.667 1.37494 226.096 1.74248C226.525 2.11002 226.855 2.56332 227.088 3.10239C227.333 3.6292 227.456 4.23564 227.456 4.92172C227.456 5.44853 227.376 5.97534 227.217 6.50215C227.058 7.02896 226.794 7.50676 226.427 7.93556C226.071 8.36436 225.6 8.7074 225.012 8.96468C224.423 9.22196 223.695 9.3506 222.825 9.3506H220.895V14H218.745V0.621479H222.512ZM222.806 7.29236C223.284 7.29236 223.682 7.21885 224.001 7.07184C224.319 6.91257 224.564 6.71655 224.736 6.48377C224.92 6.25099 225.048 6.00597 225.122 5.74869C225.208 5.47916 225.25 5.228 225.25 4.99523C225.25 4.7747 225.214 4.5358 225.14 4.27852C225.067 4.00899 224.944 3.75784 224.773 3.52506C224.601 3.28003 224.356 3.07788 224.038 2.91861C223.731 2.75935 223.345 2.67971 222.88 2.67971H220.895V7.29236H222.806ZM225.122 8.56038L228.54 14H226.059L222.567 8.61551L225.122 8.56038ZM231.056 0.621479H239.932V2.67971H233.206V6.24487H239.197V8.32148H233.206V11.9418H240.19V14H231.056V0.621479ZM250.172 3.34129C249.694 3.09626 249.186 2.88799 248.647 2.71647C248.108 2.5327 247.593 2.44081 247.103 2.44081C246.442 2.44081 245.915 2.58783 245.523 2.88186C245.143 3.17589 244.953 3.58019 244.953 4.09475C244.953 4.46229 245.088 4.78695 245.357 5.06873C245.627 5.33827 245.97 5.57717 246.386 5.78544C246.803 5.98146 247.244 6.17136 247.71 6.35513C248.114 6.50215 248.512 6.67979 248.904 6.88807C249.308 7.08409 249.67 7.32912 249.988 7.62315C250.307 7.91718 250.558 8.28473 250.742 8.72578C250.938 9.15457 251.036 9.68751 251.036 10.3246C251.036 11.0229 250.858 11.6661 250.503 12.2542C250.148 12.83 249.639 13.2894 248.978 13.6325C248.316 13.9755 247.507 14.147 246.552 14.147C246 14.147 245.455 14.0858 244.916 13.9632C244.389 13.8407 243.887 13.6753 243.409 13.4671C242.931 13.2465 242.49 13.0015 242.086 12.732L243.042 11.0597C243.336 11.2802 243.673 11.4823 244.052 11.6661C244.432 11.8499 244.824 11.9969 245.229 12.1072C245.633 12.2052 246.013 12.2542 246.368 12.2542C246.748 12.2542 247.121 12.1929 247.489 12.0704C247.869 11.9479 248.181 11.7457 248.426 11.464C248.684 11.1822 248.812 10.8085 248.812 10.343C248.812 9.96317 248.702 9.6385 248.481 9.36897C248.261 9.09944 247.973 8.86667 247.618 8.67064C247.275 8.46237 246.895 8.2786 246.478 8.11933C246.062 7.96006 245.633 7.78242 245.192 7.5864C244.763 7.39037 244.365 7.15147 243.997 6.86969C243.63 6.57566 243.33 6.22037 243.097 5.80382C242.864 5.38727 242.748 4.87271 242.748 4.26014C242.748 3.52506 242.919 2.88799 243.262 2.34893C243.605 1.80986 244.077 1.38107 244.677 1.06253C245.29 0.743993 245.994 0.572473 246.791 0.54797C247.734 0.54797 248.536 0.664358 249.198 0.897135C249.872 1.11766 250.466 1.38719 250.981 1.70573L250.172 3.34129ZM253.848 0.621479H262.724V2.67971H255.998V6.24487H261.989V8.32148H255.998V11.9418H262.981V14H253.848V0.621479ZM277.705 14.4778L267.432 4.51742L268.057 4.7747L268.112 14H265.944V0.162052H266.036L276.162 10.1224L275.665 9.97542L275.629 0.621479H277.76V14.4778H277.705ZM280.494 0.621479H289.444V2.67971H285.989V14H283.857V2.67971H280.494V0.621479ZM299.184 3.34129C298.706 3.09626 298.197 2.88799 297.658 2.71647C297.119 2.5327 296.605 2.44081 296.115 2.44081C295.453 2.44081 294.926 2.58783 294.534 2.88186C294.154 3.17589 293.965 3.58019 293.965 4.09475C293.965 4.46229 294.099 4.78695 294.369 5.06873C294.638 5.33827 294.981 5.57717 295.398 5.78544C295.814 5.98146 296.256 6.17136 296.721 6.35513C297.125 6.50215 297.524 6.67979 297.916 6.88807C298.32 7.08409 298.681 7.32912 299 7.62315C299.318 7.91718 299.57 8.28473 299.753 8.72578C299.949 9.15457 300.047 9.68751 300.047 10.3246C300.047 11.0229 299.87 11.6661 299.514 12.2542C299.159 12.83 298.651 13.2894 297.989 13.6325C297.328 13.9755 296.519 14.147 295.563 14.147C295.012 14.147 294.467 14.0858 293.928 13.9632C293.401 13.8407 292.899 13.6753 292.421 13.4671C291.943 13.2465 291.502 13.0015 291.098 12.732L292.053 11.0597C292.347 11.2802 292.684 11.4823 293.064 11.6661C293.444 11.8499 293.836 11.9969 294.24 12.1072C294.644 12.2052 295.024 12.2542 295.38 12.2542C295.759 12.2542 296.133 12.1929 296.501 12.0704C296.88 11.9479 297.193 11.7457 297.438 11.464C297.695 11.1822 297.824 10.8085 297.824 10.343C297.824 9.96317 297.713 9.6385 297.493 9.36897C297.272 9.09944 296.984 8.86667 296.629 8.67064C296.286 8.46237 295.906 8.2786 295.49 8.11933C295.073 7.96006 294.644 7.78242 294.203 7.5864C293.775 7.39037 293.376 7.15147 293.009 6.86969C292.641 6.57566 292.341 6.22037 292.108 5.80382C291.876 5.38727 291.759 4.87271 291.759 4.26014C291.759 3.52506 291.931 2.88799 292.274 2.34893C292.617 1.80986 293.089 1.38107 293.689 1.06253C294.301 0.743993 295.006 0.572473 295.802 0.54797C296.746 0.54797 297.548 0.664358 298.21 0.897135C298.883 1.11766 299.478 1.38719 299.992 1.70573L299.184 3.34129Z" fill="#C09836"/>
<path d="M107.213 26.0153C108.878 26.0153 110.203 26.3555 111.187 27.036C112.172 27.7021 112.664 28.7011 112.664 30.0332C112.664 31.0177 112.418 31.843 111.926 32.5091C111.448 33.1606 110.789 33.6529 109.949 33.9859C109.124 34.3045 108.176 34.4637 107.104 34.4637L106.605 32.7697C107.922 32.7697 109.088 32.9507 110.101 33.3126C111.129 33.6746 111.94 34.1959 112.534 34.8764C113.127 35.5424 113.424 36.346 113.424 37.2871C113.424 38.1558 113.265 38.8943 112.946 39.5024C112.642 40.096 112.223 40.5811 111.687 40.9575C111.166 41.3195 110.572 41.5874 109.906 41.7611C109.24 41.9204 108.552 42 107.843 42H102.522V26.0153H107.213ZM107.582 32.5525C108.205 32.5525 108.661 32.3643 108.95 31.9878C109.254 31.6114 109.406 31.1842 109.406 30.7064C109.406 30.1562 109.218 29.7436 108.842 29.4685C108.48 29.1934 107.987 29.0558 107.365 29.0558H105.671V32.5525H107.582ZM107.691 39.068C108.154 39.068 108.574 39.0101 108.95 38.8943C109.327 38.764 109.624 38.5685 109.841 38.3079C110.058 38.0328 110.167 37.6925 110.167 37.2871C110.167 36.8238 110.036 36.4763 109.776 36.2446C109.515 35.9985 109.175 35.832 108.755 35.7451C108.349 35.6438 107.922 35.5931 107.473 35.5931H105.671V39.068H107.691ZM116.401 42L123.612 25.3854H123.785L130.996 42H127.347L122.743 30.3155L125.023 28.7518L119.507 42H116.401ZM121.331 36.2229H126.131L127.239 38.8726H120.354L121.331 36.2229ZM146.384 40.6752C146.21 40.82 145.884 41.0154 145.406 41.2616C144.943 41.5077 144.371 41.7249 143.691 41.9131C143.01 42.1014 142.257 42.1882 141.432 42.1737C140.172 42.1448 139.043 41.9204 138.044 41.5005C137.059 41.0661 136.219 40.4797 135.524 39.7413C134.844 39.0029 134.323 38.1558 133.961 37.2002C133.599 36.2446 133.418 35.2239 133.418 34.1379C133.418 32.9217 133.599 31.8068 133.961 30.7933C134.337 29.7798 134.866 28.9038 135.546 28.1654C136.241 27.427 137.066 26.8551 138.022 26.4496C138.978 26.0442 140.035 25.8415 141.193 25.8415C142.264 25.8415 143.213 25.9863 144.038 26.2759C144.863 26.5655 145.537 26.8768 146.058 27.2098L144.82 30.1852C144.458 29.9101 143.973 29.6278 143.365 29.3382C142.771 29.0341 142.083 28.8821 141.302 28.8821C140.693 28.8821 140.107 29.0124 139.542 29.273C138.992 29.5192 138.5 29.8739 138.065 30.3372C137.646 30.8006 137.313 31.3435 137.066 31.9661C136.82 32.5742 136.697 33.2403 136.697 33.9642C136.697 34.7316 136.806 35.4338 137.023 36.0709C137.255 36.708 137.58 37.2582 138 37.7215C138.42 38.1703 138.92 38.5178 139.499 38.764C140.093 39.0101 140.759 39.1332 141.497 39.1332C142.351 39.1332 143.082 38.9956 143.691 38.7205C144.299 38.4454 144.762 38.1558 145.081 37.8518L146.384 40.6752ZM154.903 31.7055L154.816 32.5091L155.294 31.901L160.506 26.0153H164.589L157.987 33.1823L164.611 42H160.615L155.685 35.1804L154.903 35.9623V42H151.71V26.0153H154.903V31.7055ZM177.71 29.8811C177.101 29.5481 176.479 29.273 175.842 29.0558C175.219 28.8387 174.633 28.7301 174.083 28.7301C173.402 28.7301 172.866 28.8676 172.475 29.1427C172.084 29.4178 171.889 29.8305 171.889 30.3807C171.889 30.7571 172.034 31.0974 172.323 31.4014C172.627 31.691 173.011 31.9516 173.474 32.1833C173.952 32.415 174.445 32.6249 174.951 32.8131C175.415 32.9869 175.871 33.1968 176.32 33.443C176.783 33.6746 177.195 33.9714 177.557 34.3334C177.919 34.6809 178.209 35.1225 178.426 35.6582C178.643 36.1795 178.752 36.8238 178.752 37.5912C178.752 38.402 178.542 39.1549 178.122 39.8499C177.702 40.5449 177.087 41.1095 176.276 41.5439C175.465 41.9638 174.466 42.1737 173.279 42.1737C172.671 42.1737 172.048 42.1158 171.411 42C170.789 41.8697 170.173 41.6815 169.565 41.4353C168.957 41.1747 168.371 40.8489 167.806 40.458L169.196 38.0038C169.572 38.2789 169.978 38.5251 170.412 38.7422C170.861 38.9449 171.31 39.1042 171.759 39.22C172.208 39.3359 172.62 39.3938 172.997 39.3938C173.373 39.3938 173.75 39.3431 174.126 39.2418C174.517 39.1259 174.835 38.9377 175.082 38.6771C175.342 38.4165 175.473 38.0545 175.473 37.5912C175.473 37.2726 175.364 36.9831 175.147 36.7224C174.944 36.4618 174.662 36.2229 174.3 36.0057C173.952 35.7885 173.569 35.6003 173.149 35.441C172.656 35.2528 172.15 35.0356 171.628 34.7895C171.107 34.5434 170.615 34.2465 170.152 33.899C169.703 33.5371 169.333 33.0955 169.044 32.5742C168.769 32.0385 168.631 31.387 168.631 30.6196C168.631 29.6929 168.834 28.8893 169.239 28.2088C169.659 27.5283 170.246 26.9926 170.999 26.6017C171.751 26.1963 172.62 25.9718 173.605 25.9284C174.893 25.9284 175.936 26.0804 176.732 26.3845C177.543 26.6885 178.267 27.0505 178.904 27.4704L177.71 29.8811ZM182.922 26.0153H193.694V29.0558H189.807V42H186.658V29.0558H182.922V26.0153ZM195.809 42L203.02 25.3854H203.193L210.404 42H206.755L202.151 30.3155L204.431 28.7518L198.915 42H195.809ZM200.739 36.2229H205.539L206.647 38.8726H199.762L200.739 36.2229ZM227.214 40.3928C227.026 40.5955 226.729 40.8055 226.324 41.0227C225.918 41.2254 225.448 41.4136 224.912 41.5874C224.391 41.7611 223.855 41.8986 223.305 42C222.755 42.1158 222.233 42.1737 221.741 42.1737C220.438 42.1737 219.265 41.9855 218.223 41.6091C217.18 41.2181 216.29 40.6824 215.551 40.0019C214.813 39.3069 214.248 38.4889 213.857 37.5477C213.466 36.6066 213.271 35.5786 213.271 34.4637C213.271 33.0014 213.488 31.7344 213.923 30.663C214.371 29.5771 214.972 28.6794 215.725 27.9699C216.493 27.246 217.369 26.7103 218.353 26.3628C219.352 26.0153 220.395 25.8415 221.481 25.8415C222.509 25.8415 223.45 25.9574 224.304 26.189C225.158 26.4062 225.882 26.6813 226.476 27.0143L225.455 29.9463C225.194 29.8015 224.847 29.6567 224.413 29.5119C223.978 29.3671 223.537 29.2513 223.088 29.1644C222.639 29.0631 222.241 29.0124 221.893 29.0124C221.024 29.0124 220.257 29.121 219.591 29.3382C218.925 29.5554 218.36 29.8811 217.897 30.3155C217.448 30.7499 217.108 31.2928 216.876 31.9444C216.645 32.5815 216.529 33.3271 216.529 34.1814C216.529 34.9343 216.659 35.6148 216.92 36.2229C217.18 36.8165 217.542 37.3233 218.006 37.7432C218.483 38.1631 219.041 38.4816 219.678 38.6988C220.329 38.916 221.046 39.0246 221.828 39.0246C222.277 39.0246 222.69 38.9956 223.066 38.9377C223.442 38.8653 223.761 38.7567 224.022 38.6119V36.679H221.263V33.6384H227.214V40.3928ZM232.963 26.0153H243.866V29.0558H236.113V32.4656H242.976V35.5062H236.113V38.9594H244.17V42H232.963V26.0153Z" fill="white"/>
</g>
<defs>
<clipPath id="clip0_709_195">
<rect width="346.592" height="42" fill="white"/>
</clipPath>
</defs>
</svg>
